<?xml version="1.0" encoding="UTF-8" standalone="no"?>
<svg width="100px" height="80px" viewBox="0 0 100 80" version="1.1" xmlns="http://www.w3.org/2000/svg" xmlns:xlink="http://www.w3.org/1999/xlink" xmlns:sketch="http://www.bohemiancoding.com/sketch/ns">
    <!-- Generator: Sketch 3.3.3 (12081) - http://www.bohemiancoding.com/sketch -->
    <title>search</title>
    <desc>Created with Sketch.</desc>
    <defs></defs>
    <g id="Page-1" stroke="none" stroke-width="1" fill="none" fill-rule="evenodd" sketch:type="MSPage">
        <g id="search" sketch:type="MSLayerGroup">
            <g id="Page-1" sketch:type="MSShapeGroup">
                <g id="search">
                    <g id="Page-1">
                        <g id="Artboard-1-Copy">
                            <rect id="Rectangle-8" fill="#E8E8E8" x="0" y="0" width="100" height="16" rx="2"></rect>
                            <rect id="Rectangle-9" fill="#F8F8F8" x="0" y="16" width="100" height="64"></rect>
                            <rect id="Rectangle-10-Copy" fill="#FFFFFF" x="19" y="4" width="56" height="8"></rect>
                            <path d="M8,25 L59,25 L59,29 L8,29 L8,25 L8,25 Z" id="Fill-7" fill="#C0C0C0"></path>
                            <path d="M8,57 L59,57 L59,61 L8,61 L8,57 L8,57 Z" id="Fill-7-Copy-5" fill="#C0C0C0"></path>
                            <path d="M22,35 L51,35 L51,39 L22,39 L22,35 L22,35 Z" id="Fill-9" fill="#E7E7E7"></path>
                            <path d="M8,43 L75,43 L75,47 L8,47 L8,43 L8,43 Z" id="Fill-9-Copy" fill="#E7E7E7"></path>
                            <path d="M8,65 L75,65 L75,69 L8,69 L8,65 L8,65 Z" id="Fill-9-Copy-2" fill="#E7E7E7"></path>
                            <rect id="Rectangle-10-Copy-3" fill="#FFC107" x="8" y="33" width="10" height="6"></rect>
                            <g id="Group" transform="translate(3.000000, 4.000000)">
                                <path d="M5,2.66666667 L7,2.66666667 L7,8 L5,8 L5,2.66666667 L5,2.66666667 Z" id="Fill-7-Copy" fill="#C0C0C0"></path>
                                <path d="M0,0 L4,0 L4,8 L0,8 L0,0 L0,0 Z" id="Fill-7-Copy-4" fill="#C0C0C0"></path>
                                <path d="M8,2.66666667 L10,2.66666667 L10,8 L8,8 L8,2.66666667 L8,2.66666667 Z" id="Fill-7-Copy-2" fill="#D8D8D8"></path>
                                <path d="M11,2.66666667 L13,2.66666667 L13,8 L11,8 L11,2.66666667 L11,2.66666667 Z" id="Fill-7-Copy-3" fill="#C0C0C0"></path>
                            </g>
                            <g id="Fill-7-+-Fill-14" transform="translate(79.000000, 4.000000)">
                                <path d="M16,6.82955377 C16,7.4732992 15.4535312,8 14.7856248,8 L1.21437517,8 C0.546468825,8 0,7.4732992 0,6.82955377 L0,1.17044623 C0,0.526700805 0.546468825,0 1.21437517,0 L14.7856248,0 C15.4535312,0 16,0.526700805 16,1.17044623 L16,6.82955377" id="Fill-7" fill="#C0C0C0"></path>
                                <path d="M9.57311321,4.64445755 L9.34610849,4.64445755 L9.26709906,4.56603774 C9.54775943,4.24174528 9.71639151,3.82016509 9.71639151,3.35849057 C9.71639151,2.33195755 8.88443396,1.5 7.85790094,1.5 C6.83136792,1.5 6,2.33195755 6,3.35849057 C6,4.38443396 6.83136792,5.21639151 7.85790094,5.21639151 C8.31957547,5.21639151 8.74115566,5.04775943 9.06603774,4.76886792 L9.14445755,4.84787736 L9.14445755,5.07370283 L10.5737028,6.5 L11,6.07429245 L9.57311321,4.64445755 L9.57311321,4.64445755 Z M7.85790094,4.64445755 C7.14740566,4.64445755 6.57134434,4.06839623 6.57134434,3.35849057 C6.57134434,2.64799528 7.14740566,2.07193396 7.85790094,2.07193396 C8.56839623,2.07193396 9.14445755,2.64799528 9.14445755,3.35849057 C9.14445755,4.06839623 8.56839623,4.64445755 7.85790094,4.64445755 L7.85790094,4.64445755 L7.85790094,4.64445755 Z" id="Fill-14" fill="#FFFFFF"></path>
                            </g>
                        </g>
                    </g>
                </g>
            </g>
            <rect id="Rectangle-5" fill="#E8E8E8" sketch:type="MSShapeGroup" x="0" y="14" width="100" height="2"></rect>
        </g>
    </g>
</svg>